<?xml version="1.0" standalone="no"?>
<!DOCTYPE svg PUBLIC "-//W3C//DTD SVG 20010904//EN"
 "http://www.w3.org/TR/2001/REC-SVG-20010904/DTD/svg10.dtd">
<svg version="1.0" xmlns="http://www.w3.org/2000/svg"
 width="192.000000pt" height="192.000000pt" viewBox="0 0 192.000000 192.000000"
 preserveAspectRatio="xMidYMid meet">
<metadata>
Created by potrace 1.14, written by Peter Selinger 2001-2017
</metadata>
<g transform="translate(0.000000,192.000000) scale(0.100000,-0.100000)"
fill="#000000" stroke="none">
<path d="M1012 1913 c-6 -2 -9 -10 -6 -15 4 -6 3 -8 -3 -5 -5 3 -22 -1 -37 -8
-16 -8 -32 -12 -37 -9 -5 3 -9 -2 -9 -11 0 -9 -4 -13 -10 -10 -5 3 -10 2 -10
-4 0 -6 -6 -8 -14 -5 -8 3 -23 -4 -32 -15 -13 -15 -20 -17 -26 -8 -5 8 -8 7
-8 -5 0 -11 -8 -18 -21 -18 -13 0 -18 -4 -13 -12 4 -7 3 -8 -5 -4 -6 4 -18 2
-26 -4 -8 -7 -15 -9 -15 -6 0 4 -12 -5 -27 -19 -15 -14 -38 -25 -50 -25 -13 0
-23 -5 -23 -11 0 -5 -4 -7 -10 -4 -5 3 -10 1 -10 -5 0 -6 -5 -8 -11 -4 -6 3
-15 0 -20 -7 -4 -8 -13 -15 -19 -15 -5 -1 -15 -2 -21 -3 -5 0 -7 -6 -3 -13 4
-6 3 -8 -3 -5 -5 3 -26 -2 -45 -13 -20 -10 -39 -16 -42 -13 -3 4 -6 -2 -6 -11
0 -12 -5 -16 -15 -12 -8 3 -21 -2 -30 -10 -8 -9 -15 -12 -15 -8 0 3 -7 1 -15
-6 -8 -7 -15 -9 -15 -4 0 4 -7 -1 -15 -12 -8 -10 -15 -15 -15 -11 0 5 -13 -1
-30 -13 -17 -12 -30 -17 -30 -11 0 6 -9 2 -20 -9 -12 -12 -25 -18 -29 -15 -5
2 -12 -2 -15 -11 -4 -9 -9 -14 -12 -11 -4 3 -13 -1 -21 -9 -8 -8 -19 -12 -24
-9 -5 4 -9 0 -9 -9 0 -8 -5 -16 -12 -18 -14 -5 -19 -158 -5 -158 6 0 6 -5 1
-12 -5 -7 -9 -34 -9 -60 0 -25 -3 -44 -7 -42 -4 3 -8 1 -8 -4 0 -6 -8 -9 -17
-8 -10 0 -17 -5 -15 -12 1 -8 -3 -12 -10 -9 -7 2 -22 -3 -32 -12 -14 -11 -17
-12 -11 -2 6 10 4 12 -4 7 -8 -5 -11 -29 -10 -67 2 -41 6 -56 13 -50 6 5 19 7
29 6 9 -2 15 1 12 5 -7 11 12 22 39 24 12 1 20 8 18 15 -2 9 4 12 18 8 12 -3
28 2 38 11 9 10 26 17 37 17 11 0 26 5 33 12 7 7 20 13 28 13 8 0 13 4 10 8
-2 4 5 9 16 9 11 1 29 10 39 19 11 10 19 12 19 6 0 -6 7 -9 15 -6 8 4 15 10
15 16 0 5 -5 6 -12 2 -6 -4 -8 -3 -5 4 4 5 15 9 25 7 9 -1 22 2 29 7 7 6 14 4
19 -4 11 -16 12 -1065 2 -1081 -4 -7 -8 -8 -8 -3 0 5 -9 1 -20 -9 -11 -10 -20
-13 -20 -7 0 6 6 13 13 15 7 3 5 6 -5 6 -10 1 -18 -4 -18 -10 0 -5 -5 -7 -10
-4 -14 9 -140 13 -134 4 2 -4 -12 -3 -31 1 -22 5 -35 4 -35 -2 0 -6 -6 -5 -15
2 -12 10 -15 9 -16 -6 0 -18 -1 -18 -9 1 -6 13 -9 15 -9 5 -1 -9 -4 -11 -9 -5
-4 6 -31 10 -60 10 l-53 0 3 -55 3 -55 958 -1 957 -2 0 670 c0 391 -4 667 -9
664 -5 -3 -12 1 -15 10 -4 9 -9 14 -13 10 -3 -3 -15 2 -26 11 -15 13 -19 14
-13 3 6 -12 4 -11 -6 1 -7 9 -21 15 -30 13 -10 -1 -16 2 -15 8 1 6 -7 12 -18
14 -11 1 -21 8 -23 13 -2 6 -14 11 -27 11 -12 0 -28 6 -34 14 -7 8 -21 12 -31
9 -12 -3 -22 1 -26 10 -3 9 -13 13 -25 10 -10 -3 -17 -8 -15 -12 3 -4 -12 -8
-32 -9 -20 -2 -39 -8 -43 -13 -6 -11 -49 4 -49 17 0 3 6 2 13 -2 9 -6 9 -4 1
7 -6 8 -10 61 -9 131 0 64 -2 115 -6 112 -4 -2 -12 2 -16 11 -5 8 -20 16 -35
17 -16 1 -24 7 -21 15 3 8 0 11 -9 8 -8 -3 -22 3 -32 14 -10 11 -23 18 -28 15
-5 -3 -16 2 -24 12 -9 11 -13 14 -10 7 5 -8 0 -8 -19 0 -14 7 -25 16 -25 20 0
5 -5 5 -10 2 -6 -3 -13 0 -16 8 -3 8 -16 13 -29 12 -17 -2 -22 1 -18 11 3 10
-3 14 -20 14 -14 0 -28 7 -31 16 -3 9 -12 14 -18 12 -7 -3 -19 1 -26 9 -13 13
-46 16 -70 6z m-19 -150 c-3 -7 -1 -13 4 -13 6 0 10 -313 10 -805 0 -665 -3
-805 -14 -805 -7 0 -13 -6 -13 -14 0 -8 -9 -13 -22 -12 -13 1 -26 -3 -30 -9
-5 -7 -8 -6 -8 1 0 12 -52 10 -72 -2 -7 -5 -8 -2 -3 6 6 10 4 12 -8 7 -11 -4
-15 -1 -12 14 2 10 1 19 -3 19 -9 0 -8 47 1 56 4 4 3 12 0 18 -12 18 -12 36
-1 36 7 0 7 4 0 13 -7 8 -7 18 -2 27 5 9 5 19 -2 27 -7 9 -7 13 0 13 7 0 8 10
2 30 -5 18 -5 32 1 36 5 3 6 11 2 17 -11 18 -12 37 -3 37 5 0 5 13 0 30 -5 18
-5 32 1 36 5 3 6 11 2 17 -12 19 -12 37 -1 37 7 0 7 4 0 13 -6 7 -7 18 -2 27
4 7 4 23 0 35 -5 14 -4 27 3 34 6 6 7 11 1 11 -10 0 -11 51 0 68 4 7 3 12 -1
12 -5 0 -9 9 -9 20 0 11 4 20 7 20 4 0 4 13 -1 30 -5 18 -5 32 1 36 5 3 6 11
2 17 -11 18 -12 37 -3 37 5 0 5 13 0 30 -5 18 -5 32 1 36 5 3 6 11 2 17 -12
19 -12 37 -1 37 7 0 7 4 0 13 -6 7 -7 18 -2 27 4 7 4 23 0 35 -5 14 -4 27 3
34 6 6 7 11 2 11 -11 0 -12 51 -1 68 4 7 3 12 -3 12 -7 0 -7 8 -2 23 6 16 6
24 -2 25 -45 4 -54 7 -50 19 4 9 -3 10 -25 4 -16 -5 -34 -6 -40 -2 -6 4 -64 6
-129 5 -153 -2 -155 -2 -149 -13 4 -5 -1 -8 -11 -7 -9 2 -24 -5 -34 -15 -10
-10 -25 -16 -32 -13 -8 3 -17 -2 -20 -10 -4 -9 -15 -13 -26 -11 -11 2 -20 -1
-18 -7 1 -6 -8 -12 -20 -14 -12 -2 -28 -5 -35 -6 -8 -2 -13 14 -15 52 -2 30
-4 67 -6 82 -2 15 0 25 4 22 4 -2 10 0 14 6 4 6 10 8 15 5 4 -3 11 2 14 11 3
8 10 12 16 9 5 -3 10 -2 10 4 0 6 7 7 17 4 10 -4 14 -2 10 4 -4 6 6 13 24 17
17 3 28 10 25 15 -4 5 5 8 18 7 14 -2 24 2 23 8 -1 6 8 11 20 11 12 0 26 5 30
9 5 5 2 6 -7 1 -11 -6 -12 -5 -4 4 6 7 21 13 32 14 12 0 24 7 26 14 3 7 15 13
26 13 11 0 20 5 20 11 0 6 9 9 20 6 11 -3 18 -2 16 1 -6 11 18 29 36 26 9 -1
19 5 22 13 3 8 10 12 15 9 4 -3 19 3 31 14 17 14 26 17 31 9 4 -8 9 -4 13 9 5
14 13 19 26 17 13 -2 20 2 20 11 0 8 4 13 9 9 5 -3 12 -1 16 5 4 6 11 8 16 5
5 -4 9 -1 9 5 0 6 4 9 9 5 5 -3 16 2 25 11 9 8 25 16 36 17 11 1 22 7 25 15 3
8 12 11 20 8 9 -3 18 0 21 7 2 7 13 13 23 13 11 0 17 -6 14 -13z m562 -423
c-3 -5 -2 -10 4 -10 6 0 10 -209 9 -605 0 -383 -3 -605 -9 -605 -6 0 -7 -6 -3
-12 4 -7 -3 -4 -16 7 -13 11 -20 15 -16 8 4 -8 -2 -11 -21 -10 l-28 2 -1 590
c0 325 2 596 4 602 2 7 8 11 12 8 4 -3 10 2 14 10 3 8 12 12 20 9 8 -3 17 -1
21 5 3 6 8 11 11 11 3 0 2 -4 -1 -10z"/>
<path d="M1890 1908 c0 -5 -6 -6 -12 -2 -7 4 -9 3 -5 -1 12 -14 35 -14 40 -1
3 7 -1 13 -9 13 -8 0 -14 -4 -14 -9z"/>
<path d="M680 1749 c0 -5 5 -7 10 -4 6 3 10 8 10 11 0 2 -4 4 -10 4 -5 0 -10
-5 -10 -11z"/>
</g>
</svg>
